<mxfile host="app.diagrams.net" modified="2022-03-01T15:49:22.657Z" agent="5.0 (Macintosh)" etag="McdRHswRuVbrAGPj8fD9" version="16.6.4" type="github">
  <diagram id="x7MlGXlHcSR0PO5Mygpb" name="Page-1">
    <mxGraphModel dx="1426" dy="792" grid="1" gridSize="10" guides="1" tooltips="1" connect="1" arrows="1" fold="1" page="1" pageScale="1" pageWidth="850" pageHeight="1100" math="0" shadow="0">
      <root>
        <mxCell id="0" />
        <mxCell id="1" parent="0" />
        <mxCell id="1jjd0BEGG7qsmMhBdb2S-7" value="" style="shape=actor;whiteSpace=wrap;html=1;fillColor=#d5e8d4;strokeColor=#82b366;" vertex="1" parent="1">
          <mxGeometry x="170" y="123.75" width="40" height="60" as="geometry" />
        </mxCell>
        <mxCell id="1jjd0BEGG7qsmMhBdb2S-9" value="&lt;div&gt;GitHub&lt;/div&gt;&lt;div&gt;(remote repository)&lt;/div&gt;" style="ellipse;shape=cloud;whiteSpace=wrap;html=1;" vertex="1" parent="1">
          <mxGeometry x="105" y="200" width="170" height="107.5" as="geometry" />
        </mxCell>
        <mxCell id="1jjd0BEGG7qsmMhBdb2S-22" value="" style="group" vertex="1" connectable="0" parent="1">
          <mxGeometry x="338.5" y="330" width="113" height="23" as="geometry" />
        </mxCell>
        <mxCell id="1jjd0BEGG7qsmMhBdb2S-23" value="" style="ellipse;whiteSpace=wrap;html=1;aspect=fixed;fillColor=#d5e8d4;strokeColor=#82b366;strokeWidth=3;" vertex="1" parent="1jjd0BEGG7qsmMhBdb2S-22">
          <mxGeometry width="23" height="23" as="geometry" />
        </mxCell>
        <mxCell id="1jjd0BEGG7qsmMhBdb2S-24" value="" style="ellipse;whiteSpace=wrap;html=1;aspect=fixed;fillColor=#d5e8d4;strokeColor=#82b366;strokeWidth=3;" vertex="1" parent="1jjd0BEGG7qsmMhBdb2S-22">
          <mxGeometry x="45" width="23" height="23" as="geometry" />
        </mxCell>
        <mxCell id="1jjd0BEGG7qsmMhBdb2S-25" value="" style="endArrow=none;html=1;rounded=0;fillColor=#d5e8d4;strokeColor=#33001A;strokeWidth=3;entryX=0;entryY=0.5;entryDx=0;entryDy=0;exitX=1;exitY=0.5;exitDx=0;exitDy=0;" edge="1" parent="1jjd0BEGG7qsmMhBdb2S-22" source="1jjd0BEGG7qsmMhBdb2S-23" target="1jjd0BEGG7qsmMhBdb2S-24">
          <mxGeometry width="50" height="50" relative="1" as="geometry">
            <mxPoint x="-81.88" y="10" as="sourcePoint" />
            <mxPoint x="48.120000000000005" as="targetPoint" />
          </mxGeometry>
        </mxCell>
        <mxCell id="1jjd0BEGG7qsmMhBdb2S-26" value="" style="ellipse;whiteSpace=wrap;html=1;aspect=fixed;fillColor=#d5e8d4;strokeColor=#82b366;strokeWidth=3;" vertex="1" parent="1jjd0BEGG7qsmMhBdb2S-22">
          <mxGeometry x="90" width="23" height="23" as="geometry" />
        </mxCell>
        <mxCell id="1jjd0BEGG7qsmMhBdb2S-27" value="" style="endArrow=none;html=1;rounded=0;fillColor=#d5e8d4;strokeColor=#33001A;strokeWidth=3;entryX=0;entryY=0.5;entryDx=0;entryDy=0;exitX=1;exitY=0.5;exitDx=0;exitDy=0;" edge="1" parent="1jjd0BEGG7qsmMhBdb2S-22" source="1jjd0BEGG7qsmMhBdb2S-24" target="1jjd0BEGG7qsmMhBdb2S-26">
          <mxGeometry width="50" height="50" relative="1" as="geometry">
            <mxPoint x="30" y="21.25" as="sourcePoint" />
            <mxPoint x="55" y="21.25" as="targetPoint" />
          </mxGeometry>
        </mxCell>
        <mxCell id="1jjd0BEGG7qsmMhBdb2S-28" value="" style="shape=actor;whiteSpace=wrap;html=1;fillColor=#e1d5e7;strokeColor=#9673a6;" vertex="1" parent="1">
          <mxGeometry x="375" y="123.75" width="40" height="60" as="geometry" />
        </mxCell>
        <mxCell id="1jjd0BEGG7qsmMhBdb2S-29" value="&lt;div&gt;GitHub&lt;/div&gt;&lt;div&gt;(remote repository)&lt;/div&gt;" style="ellipse;shape=cloud;whiteSpace=wrap;html=1;" vertex="1" parent="1">
          <mxGeometry x="310" y="200" width="170" height="107.5" as="geometry" />
        </mxCell>
        <mxCell id="1jjd0BEGG7qsmMhBdb2S-3" value="" style="ellipse;whiteSpace=wrap;html=1;aspect=fixed;fillColor=#d5e8d4;strokeColor=#82b366;strokeWidth=3;" vertex="1" parent="1">
          <mxGeometry x="178.5" y="367" width="23" height="23" as="geometry" />
        </mxCell>
        <mxCell id="1jjd0BEGG7qsmMhBdb2S-4" value="" style="endArrow=none;html=1;rounded=0;fillColor=#d5e8d4;strokeColor=#33001A;strokeWidth=3;exitX=0.5;exitY=1;exitDx=0;exitDy=0;entryX=0.5;entryY=0;entryDx=0;entryDy=0;" edge="1" parent="1" source="1jjd0BEGG7qsmMhBdb2S-2" target="1jjd0BEGG7qsmMhBdb2S-3">
          <mxGeometry width="50" height="50" relative="1" as="geometry">
            <mxPoint x="96.62" y="317" as="sourcePoint" />
            <mxPoint x="190" y="357" as="targetPoint" />
          </mxGeometry>
        </mxCell>
        <mxCell id="1jjd0BEGG7qsmMhBdb2S-5" value="" style="ellipse;whiteSpace=wrap;html=1;aspect=fixed;fillColor=#d5e8d4;strokeColor=#82b366;strokeWidth=3;" vertex="1" parent="1">
          <mxGeometry x="178.5" y="407" width="23" height="23" as="geometry" />
        </mxCell>
        <mxCell id="1jjd0BEGG7qsmMhBdb2S-31" value="" style="endArrow=none;html=1;rounded=0;fillColor=#d5e8d4;strokeColor=#33001A;strokeWidth=3;exitX=0.5;exitY=1;exitDx=0;exitDy=0;entryX=0.5;entryY=0;entryDx=0;entryDy=0;" edge="1" parent="1" source="1jjd0BEGG7qsmMhBdb2S-3" target="1jjd0BEGG7qsmMhBdb2S-5">
          <mxGeometry width="50" height="50" relative="1" as="geometry">
            <mxPoint x="215" y="390" as="sourcePoint" />
            <mxPoint x="215" y="427" as="targetPoint" />
          </mxGeometry>
        </mxCell>
        <mxCell id="1jjd0BEGG7qsmMhBdb2S-2" value="" style="ellipse;whiteSpace=wrap;html=1;aspect=fixed;fillColor=#d5e8d4;strokeColor=#82b366;strokeWidth=3;" vertex="1" parent="1">
          <mxGeometry x="178.5" y="330" width="23" height="23" as="geometry" />
        </mxCell>
        <mxCell id="1jjd0BEGG7qsmMhBdb2S-59" value="" style="shape=actor;whiteSpace=wrap;html=1;fillColor=#d5e8d4;strokeColor=#82b366;" vertex="1" parent="1">
          <mxGeometry x="340" y="480" width="40" height="60" as="geometry" />
        </mxCell>
        <mxCell id="1jjd0BEGG7qsmMhBdb2S-60" value="&lt;div&gt;GitHub&lt;/div&gt;&lt;div&gt;(remote repository)&lt;/div&gt;" style="ellipse;shape=cloud;whiteSpace=wrap;html=1;" vertex="1" parent="1">
          <mxGeometry x="270" y="540" width="170" height="107.5" as="geometry" />
        </mxCell>
        <mxCell id="1jjd0BEGG7qsmMhBdb2S-61" value="&lt;div&gt;RStudio&lt;/div&gt;&lt;div&gt;(local repository)&lt;br&gt;&lt;/div&gt;" style="rounded=1;whiteSpace=wrap;html=1;" vertex="1" parent="1">
          <mxGeometry x="280" y="747.5" width="150" height="60" as="geometry" />
        </mxCell>
        <mxCell id="1jjd0BEGG7qsmMhBdb2S-62" value="" style="endArrow=classic;html=1;rounded=0;fontSize=17;strokeColor=#CCCCCC;strokeWidth=3;edgeStyle=orthogonalEdgeStyle;elbow=vertical;curved=1;" edge="1" parent="1">
          <mxGeometry relative="1" as="geometry">
            <mxPoint x="270" y="595.05" as="sourcePoint" />
            <mxPoint x="260" y="779.95" as="targetPoint" />
            <Array as="points">
              <mxPoint x="160" y="595" />
              <mxPoint x="160" y="780" />
            </Array>
          </mxGeometry>
        </mxCell>
        <mxCell id="1jjd0BEGG7qsmMhBdb2S-63" value="Clone" style="edgeLabel;resizable=0;html=1;align=center;verticalAlign=middle;fontSize=17;strokeWidth=3;fillColor=#FFFFFF;" connectable="0" vertex="1" parent="1jjd0BEGG7qsmMhBdb2S-62">
          <mxGeometry relative="1" as="geometry" />
        </mxCell>
        <mxCell id="1jjd0BEGG7qsmMhBdb2S-64" value="" style="endArrow=classic;html=1;rounded=0;strokeColor=#CCCCCC;strokeWidth=3;" edge="1" parent="1">
          <mxGeometry relative="1" as="geometry">
            <mxPoint x="354.5" y="732.5" as="sourcePoint" />
            <mxPoint x="354.5" y="660" as="targetPoint" />
          </mxGeometry>
        </mxCell>
        <mxCell id="1jjd0BEGG7qsmMhBdb2S-65" value="&lt;div style=&quot;font-size: 17px;&quot;&gt;Push&lt;/div&gt;" style="edgeLabel;resizable=0;html=1;align=center;verticalAlign=middle;fontSize=17;" connectable="0" vertex="1" parent="1jjd0BEGG7qsmMhBdb2S-64">
          <mxGeometry relative="1" as="geometry" />
        </mxCell>
        <mxCell id="1jjd0BEGG7qsmMhBdb2S-66" value="" style="endArrow=classic;html=1;rounded=0;fontSize=17;strokeColor=#CCCCCC;strokeWidth=3;edgeStyle=orthogonalEdgeStyle;curved=1;" edge="1" parent="1">
          <mxGeometry relative="1" as="geometry">
            <mxPoint x="600" y="790" as="sourcePoint" />
            <mxPoint x="648.5" y="790" as="targetPoint" />
            <Array as="points">
              <mxPoint x="600.5" y="830" />
              <mxPoint x="648.5" y="830" />
              <mxPoint x="648.5" y="790" />
            </Array>
          </mxGeometry>
        </mxCell>
        <mxCell id="1jjd0BEGG7qsmMhBdb2S-67" value="Commit" style="edgeLabel;resizable=0;html=1;align=center;verticalAlign=middle;fontSize=17;" connectable="0" vertex="1" parent="1jjd0BEGG7qsmMhBdb2S-66">
          <mxGeometry relative="1" as="geometry" />
        </mxCell>
        <mxCell id="1jjd0BEGG7qsmMhBdb2S-68" value="" style="group" vertex="1" connectable="0" parent="1">
          <mxGeometry x="450" y="760" width="163" height="23" as="geometry" />
        </mxCell>
        <mxCell id="1jjd0BEGG7qsmMhBdb2S-69" value="" style="group" vertex="1" connectable="0" parent="1jjd0BEGG7qsmMhBdb2S-68">
          <mxGeometry width="113" height="23" as="geometry" />
        </mxCell>
        <mxCell id="1jjd0BEGG7qsmMhBdb2S-70" value="" style="ellipse;whiteSpace=wrap;html=1;aspect=fixed;fillColor=#d5e8d4;strokeColor=#82b366;strokeWidth=3;" vertex="1" parent="1jjd0BEGG7qsmMhBdb2S-69">
          <mxGeometry width="23" height="23" as="geometry" />
        </mxCell>
        <mxCell id="1jjd0BEGG7qsmMhBdb2S-71" value="" style="ellipse;whiteSpace=wrap;html=1;aspect=fixed;fillColor=#d5e8d4;strokeColor=#82b366;strokeWidth=3;" vertex="1" parent="1jjd0BEGG7qsmMhBdb2S-69">
          <mxGeometry x="45" width="23" height="23" as="geometry" />
        </mxCell>
        <mxCell id="1jjd0BEGG7qsmMhBdb2S-72" value="" style="endArrow=none;html=1;rounded=0;fillColor=#d5e8d4;strokeColor=#33001A;strokeWidth=3;entryX=0;entryY=0.5;entryDx=0;entryDy=0;exitX=1;exitY=0.5;exitDx=0;exitDy=0;" edge="1" parent="1jjd0BEGG7qsmMhBdb2S-69" source="1jjd0BEGG7qsmMhBdb2S-70" target="1jjd0BEGG7qsmMhBdb2S-71">
          <mxGeometry width="50" height="50" relative="1" as="geometry">
            <mxPoint x="-81.88" y="10" as="sourcePoint" />
            <mxPoint x="48.120000000000005" as="targetPoint" />
          </mxGeometry>
        </mxCell>
        <mxCell id="1jjd0BEGG7qsmMhBdb2S-73" value="" style="ellipse;whiteSpace=wrap;html=1;aspect=fixed;fillColor=#d5e8d4;strokeColor=#82b366;strokeWidth=3;" vertex="1" parent="1jjd0BEGG7qsmMhBdb2S-69">
          <mxGeometry x="90" width="23" height="23" as="geometry" />
        </mxCell>
        <mxCell id="1jjd0BEGG7qsmMhBdb2S-74" value="" style="endArrow=none;html=1;rounded=0;fillColor=#d5e8d4;strokeColor=#33001A;strokeWidth=3;entryX=0;entryY=0.5;entryDx=0;entryDy=0;exitX=1;exitY=0.5;exitDx=0;exitDy=0;" edge="1" parent="1jjd0BEGG7qsmMhBdb2S-69" source="1jjd0BEGG7qsmMhBdb2S-71" target="1jjd0BEGG7qsmMhBdb2S-73">
          <mxGeometry width="50" height="50" relative="1" as="geometry">
            <mxPoint x="30" y="21.25" as="sourcePoint" />
            <mxPoint x="55" y="21.25" as="targetPoint" />
          </mxGeometry>
        </mxCell>
        <mxCell id="1jjd0BEGG7qsmMhBdb2S-75" value="" style="ellipse;whiteSpace=wrap;html=1;aspect=fixed;fillColor=#d5e8d4;strokeColor=#82b366;strokeWidth=3;" vertex="1" parent="1jjd0BEGG7qsmMhBdb2S-68">
          <mxGeometry x="140" width="23" height="23" as="geometry" />
        </mxCell>
        <mxCell id="1jjd0BEGG7qsmMhBdb2S-76" value="" style="endArrow=none;html=1;rounded=0;fillColor=#d5e8d4;strokeColor=#33001A;strokeWidth=3;entryX=1;entryY=0.5;entryDx=0;entryDy=0;exitX=0;exitY=0.5;exitDx=0;exitDy=0;" edge="1" parent="1jjd0BEGG7qsmMhBdb2S-68" source="1jjd0BEGG7qsmMhBdb2S-75" target="1jjd0BEGG7qsmMhBdb2S-73">
          <mxGeometry width="50" height="50" relative="1" as="geometry">
            <mxPoint x="78" y="21.5" as="sourcePoint" />
            <mxPoint x="100" y="21.5" as="targetPoint" />
          </mxGeometry>
        </mxCell>
        <mxCell id="1jjd0BEGG7qsmMhBdb2S-77" value="" style="group" vertex="1" connectable="0" parent="1">
          <mxGeometry x="450" y="582.25" width="163" height="23" as="geometry" />
        </mxCell>
        <mxCell id="1jjd0BEGG7qsmMhBdb2S-78" value="" style="group" vertex="1" connectable="0" parent="1jjd0BEGG7qsmMhBdb2S-77">
          <mxGeometry width="113" height="23" as="geometry" />
        </mxCell>
        <mxCell id="1jjd0BEGG7qsmMhBdb2S-79" value="" style="ellipse;whiteSpace=wrap;html=1;aspect=fixed;fillColor=#d5e8d4;strokeColor=#82b366;strokeWidth=3;" vertex="1" parent="1jjd0BEGG7qsmMhBdb2S-78">
          <mxGeometry width="23" height="23" as="geometry" />
        </mxCell>
        <mxCell id="1jjd0BEGG7qsmMhBdb2S-80" value="" style="ellipse;whiteSpace=wrap;html=1;aspect=fixed;fillColor=#d5e8d4;strokeColor=#82b366;strokeWidth=3;" vertex="1" parent="1jjd0BEGG7qsmMhBdb2S-78">
          <mxGeometry x="45" width="23" height="23" as="geometry" />
        </mxCell>
        <mxCell id="1jjd0BEGG7qsmMhBdb2S-81" value="" style="endArrow=none;html=1;rounded=0;fillColor=#d5e8d4;strokeColor=#33001A;strokeWidth=3;entryX=0;entryY=0.5;entryDx=0;entryDy=0;exitX=1;exitY=0.5;exitDx=0;exitDy=0;" edge="1" parent="1jjd0BEGG7qsmMhBdb2S-78" source="1jjd0BEGG7qsmMhBdb2S-79" target="1jjd0BEGG7qsmMhBdb2S-80">
          <mxGeometry width="50" height="50" relative="1" as="geometry">
            <mxPoint x="-81.88" y="10" as="sourcePoint" />
            <mxPoint x="48.120000000000005" as="targetPoint" />
          </mxGeometry>
        </mxCell>
        <mxCell id="1jjd0BEGG7qsmMhBdb2S-82" value="" style="ellipse;whiteSpace=wrap;html=1;aspect=fixed;fillColor=#d5e8d4;strokeColor=#82b366;strokeWidth=3;" vertex="1" parent="1jjd0BEGG7qsmMhBdb2S-78">
          <mxGeometry x="90" width="23" height="23" as="geometry" />
        </mxCell>
        <mxCell id="1jjd0BEGG7qsmMhBdb2S-83" value="" style="endArrow=none;html=1;rounded=0;fillColor=#d5e8d4;strokeColor=#33001A;strokeWidth=3;entryX=0;entryY=0.5;entryDx=0;entryDy=0;exitX=1;exitY=0.5;exitDx=0;exitDy=0;" edge="1" parent="1jjd0BEGG7qsmMhBdb2S-78" source="1jjd0BEGG7qsmMhBdb2S-80" target="1jjd0BEGG7qsmMhBdb2S-82">
          <mxGeometry width="50" height="50" relative="1" as="geometry">
            <mxPoint x="30" y="21.25" as="sourcePoint" />
            <mxPoint x="55" y="21.25" as="targetPoint" />
          </mxGeometry>
        </mxCell>
        <mxCell id="1jjd0BEGG7qsmMhBdb2S-84" value="" style="ellipse;whiteSpace=wrap;html=1;aspect=fixed;fillColor=#d5e8d4;strokeColor=#82b366;strokeWidth=3;" vertex="1" parent="1jjd0BEGG7qsmMhBdb2S-77">
          <mxGeometry x="140" width="23" height="23" as="geometry" />
        </mxCell>
        <mxCell id="1jjd0BEGG7qsmMhBdb2S-85" value="" style="endArrow=none;html=1;rounded=0;fillColor=#d5e8d4;strokeColor=#33001A;strokeWidth=3;entryX=1;entryY=0.5;entryDx=0;entryDy=0;exitX=0;exitY=0.5;exitDx=0;exitDy=0;" edge="1" parent="1jjd0BEGG7qsmMhBdb2S-77" source="1jjd0BEGG7qsmMhBdb2S-84" target="1jjd0BEGG7qsmMhBdb2S-82">
          <mxGeometry width="50" height="50" relative="1" as="geometry">
            <mxPoint x="78" y="21.5" as="sourcePoint" />
            <mxPoint x="100" y="21.5" as="targetPoint" />
          </mxGeometry>
        </mxCell>
        <mxCell id="1jjd0BEGG7qsmMhBdb2S-86" value="" style="shape=actor;whiteSpace=wrap;html=1;fillColor=#e1d5e7;strokeColor=#9673a6;" vertex="1" parent="1">
          <mxGeometry x="340" y="830" width="40" height="60" as="geometry" />
        </mxCell>
        <mxCell id="1jjd0BEGG7qsmMhBdb2S-87" value="" style="ellipse;whiteSpace=wrap;html=1;aspect=fixed;fillColor=#e1d5e7;strokeColor=#9673a6;strokeWidth=3;" vertex="1" parent="1">
          <mxGeometry x="640" y="760" width="23" height="23" as="geometry" />
        </mxCell>
        <mxCell id="1jjd0BEGG7qsmMhBdb2S-88" value="" style="endArrow=none;html=1;rounded=0;fillColor=#d5e8d4;strokeColor=#33001A;strokeWidth=3;entryX=1;entryY=0.5;entryDx=0;entryDy=0;exitX=0;exitY=0.5;exitDx=0;exitDy=0;" edge="1" parent="1">
          <mxGeometry width="50" height="50" relative="1" as="geometry">
            <mxPoint x="640" y="771" as="sourcePoint" />
            <mxPoint x="613" y="771" as="targetPoint" />
          </mxGeometry>
        </mxCell>
      </root>
    </mxGraphModel>
  </diagram>
</mxfile>
